<mxfile host="app.diagrams.net" modified="2024-06-17T09:33:15.418Z" agent="Mozilla/5.0 (Windows NT 10.0; Win64; x64) AppleWebKit/537.36 (KHTML, like Gecko) Chrome/126.0.0.0 Safari/537.36" etag="l7BgKUW4HoWNICjJBOVr" version="24.5.3" type="device" pages="2">
  <diagram name="Pagina-1" id="1WkNg9tqR0lECF4jYXhy">
    <mxGraphModel dx="1434" dy="772" grid="1" gridSize="10" guides="1" tooltips="1" connect="1" arrows="1" fold="1" page="1" pageScale="1" pageWidth="1169" pageHeight="827" math="0" shadow="0">
      <root>
        <mxCell id="0" />
        <mxCell id="1" parent="0" />
        <mxCell id="Rjq-LC_G5-A7x3cGKj0p-1" value="Manager" style="swimlane;fontStyle=0;align=center;verticalAlign=top;childLayout=stackLayout;horizontal=1;startSize=30;horizontalStack=0;resizeParent=1;resizeParentMax=0;resizeLast=0;collapsible=0;marginBottom=0;html=1;whiteSpace=wrap;" parent="1" vertex="1">
          <mxGeometry x="250" y="170" width="170" height="158" as="geometry" />
        </mxCell>
        <mxCell id="Rjq-LC_G5-A7x3cGKj0p-2" value="attributes" style="text;html=1;strokeColor=none;fillColor=none;align=center;verticalAlign=middle;spacingLeft=4;spacingRight=4;overflow=hidden;rotatable=0;points=[[0,0.5],[1,0.5]];portConstraint=eastwest;whiteSpace=wrap;" parent="Rjq-LC_G5-A7x3cGKj0p-1" vertex="1">
          <mxGeometry y="30" width="170" height="20" as="geometry" />
        </mxCell>
        <mxCell id="Rjq-LC_G5-A7x3cGKj0p-3" value="Nome" style="text;html=1;strokeColor=none;fillColor=none;align=left;verticalAlign=middle;spacingLeft=4;spacingRight=4;overflow=hidden;rotatable=0;points=[[0,0.5],[1,0.5]];portConstraint=eastwest;whiteSpace=wrap;" parent="Rjq-LC_G5-A7x3cGKj0p-1" vertex="1">
          <mxGeometry y="50" width="170" height="20" as="geometry" />
        </mxCell>
        <mxCell id="Rjq-LC_G5-A7x3cGKj0p-12" value="Cognome" style="text;html=1;strokeColor=none;fillColor=none;align=left;verticalAlign=middle;spacingLeft=4;spacingRight=4;overflow=hidden;rotatable=0;points=[[0,0.5],[1,0.5]];portConstraint=eastwest;whiteSpace=wrap;" parent="Rjq-LC_G5-A7x3cGKj0p-1" vertex="1">
          <mxGeometry y="70" width="170" height="20" as="geometry" />
        </mxCell>
        <mxCell id="Rjq-LC_G5-A7x3cGKj0p-13" value="Matricola" style="text;html=1;strokeColor=none;fillColor=none;align=left;verticalAlign=middle;spacingLeft=4;spacingRight=4;overflow=hidden;rotatable=0;points=[[0,0.5],[1,0.5]];portConstraint=eastwest;whiteSpace=wrap;" parent="Rjq-LC_G5-A7x3cGKj0p-1" vertex="1">
          <mxGeometry y="90" width="170" height="20" as="geometry" />
        </mxCell>
        <mxCell id="Rjq-LC_G5-A7x3cGKj0p-6" value="" style="line;strokeWidth=1;fillColor=none;align=left;verticalAlign=middle;spacingTop=-1;spacingLeft=3;spacingRight=3;rotatable=0;labelPosition=right;points=[];portConstraint=eastwest;" parent="Rjq-LC_G5-A7x3cGKj0p-1" vertex="1">
          <mxGeometry y="110" width="170" height="8" as="geometry" />
        </mxCell>
        <mxCell id="Rjq-LC_G5-A7x3cGKj0p-7" value="operations" style="text;html=1;strokeColor=none;fillColor=none;align=center;verticalAlign=middle;spacingLeft=4;spacingRight=4;overflow=hidden;rotatable=0;points=[[0,0.5],[1,0.5]];portConstraint=eastwest;whiteSpace=wrap;" parent="Rjq-LC_G5-A7x3cGKj0p-1" vertex="1">
          <mxGeometry y="118" width="170" height="20" as="geometry" />
        </mxCell>
        <mxCell id="Rjq-LC_G5-A7x3cGKj0p-8" value="- calcola Stipendio" style="text;html=1;strokeColor=none;fillColor=none;align=left;verticalAlign=middle;spacingLeft=4;spacingRight=4;overflow=hidden;rotatable=0;points=[[0,0.5],[1,0.5]];portConstraint=eastwest;whiteSpace=wrap;" parent="Rjq-LC_G5-A7x3cGKj0p-1" vertex="1">
          <mxGeometry y="138" width="170" height="20" as="geometry" />
        </mxCell>
        <mxCell id="Rjq-LC_G5-A7x3cGKj0p-14" value="Dipendente" style="swimlane;fontStyle=0;align=center;verticalAlign=top;childLayout=stackLayout;horizontal=1;startSize=30;horizontalStack=0;resizeParent=1;resizeParentMax=0;resizeLast=0;collapsible=0;marginBottom=0;html=1;whiteSpace=wrap;" parent="1" vertex="1">
          <mxGeometry x="450" width="170" height="158" as="geometry" />
        </mxCell>
        <mxCell id="Rjq-LC_G5-A7x3cGKj0p-15" value="attributes" style="text;html=1;strokeColor=none;fillColor=none;align=center;verticalAlign=middle;spacingLeft=4;spacingRight=4;overflow=hidden;rotatable=0;points=[[0,0.5],[1,0.5]];portConstraint=eastwest;whiteSpace=wrap;" parent="Rjq-LC_G5-A7x3cGKj0p-14" vertex="1">
          <mxGeometry y="30" width="170" height="20" as="geometry" />
        </mxCell>
        <mxCell id="Rjq-LC_G5-A7x3cGKj0p-16" value="Nome : string" style="text;html=1;strokeColor=none;fillColor=none;align=left;verticalAlign=middle;spacingLeft=4;spacingRight=4;overflow=hidden;rotatable=0;points=[[0,0.5],[1,0.5]];portConstraint=eastwest;whiteSpace=wrap;" parent="Rjq-LC_G5-A7x3cGKj0p-14" vertex="1">
          <mxGeometry y="50" width="170" height="20" as="geometry" />
        </mxCell>
        <mxCell id="Rjq-LC_G5-A7x3cGKj0p-17" value="Cognome: string" style="text;html=1;strokeColor=none;fillColor=none;align=left;verticalAlign=middle;spacingLeft=4;spacingRight=4;overflow=hidden;rotatable=0;points=[[0,0.5],[1,0.5]];portConstraint=eastwest;whiteSpace=wrap;" parent="Rjq-LC_G5-A7x3cGKj0p-14" vertex="1">
          <mxGeometry y="70" width="170" height="20" as="geometry" />
        </mxCell>
        <mxCell id="Rjq-LC_G5-A7x3cGKj0p-18" value="Matricola: number" style="text;html=1;strokeColor=none;fillColor=none;align=left;verticalAlign=middle;spacingLeft=4;spacingRight=4;overflow=hidden;rotatable=0;points=[[0,0.5],[1,0.5]];portConstraint=eastwest;whiteSpace=wrap;" parent="Rjq-LC_G5-A7x3cGKj0p-14" vertex="1">
          <mxGeometry y="90" width="170" height="20" as="geometry" />
        </mxCell>
        <mxCell id="Rjq-LC_G5-A7x3cGKj0p-19" value="" style="line;strokeWidth=1;fillColor=none;align=left;verticalAlign=middle;spacingTop=-1;spacingLeft=3;spacingRight=3;rotatable=0;labelPosition=right;points=[];portConstraint=eastwest;" parent="Rjq-LC_G5-A7x3cGKj0p-14" vertex="1">
          <mxGeometry y="110" width="170" height="8" as="geometry" />
        </mxCell>
        <mxCell id="Rjq-LC_G5-A7x3cGKj0p-20" value="operations" style="text;html=1;strokeColor=none;fillColor=none;align=center;verticalAlign=middle;spacingLeft=4;spacingRight=4;overflow=hidden;rotatable=0;points=[[0,0.5],[1,0.5]];portConstraint=eastwest;whiteSpace=wrap;" parent="Rjq-LC_G5-A7x3cGKj0p-14" vertex="1">
          <mxGeometry y="118" width="170" height="20" as="geometry" />
        </mxCell>
        <mxCell id="Rjq-LC_G5-A7x3cGKj0p-21" value="+ calcola Stipendio" style="text;html=1;strokeColor=none;fillColor=none;align=left;verticalAlign=middle;spacingLeft=4;spacingRight=4;overflow=hidden;rotatable=0;points=[[0,0.5],[1,0.5]];portConstraint=eastwest;whiteSpace=wrap;" parent="Rjq-LC_G5-A7x3cGKj0p-14" vertex="1">
          <mxGeometry y="138" width="170" height="20" as="geometry" />
        </mxCell>
        <mxCell id="Rjq-LC_G5-A7x3cGKj0p-22" style="edgeStyle=orthogonalEdgeStyle;rounded=0;orthogonalLoop=1;jettySize=auto;html=1;entryX=0.529;entryY=0.004;entryDx=0;entryDy=0;entryPerimeter=0;shape=flexArrow;" parent="1" source="Rjq-LC_G5-A7x3cGKj0p-14" target="Rjq-LC_G5-A7x3cGKj0p-1" edge="1">
          <mxGeometry relative="1" as="geometry" />
        </mxCell>
        <mxCell id="avd21NchycmkGDBWKclg-1" value="" style="shape=cylinder3;whiteSpace=wrap;html=1;boundedLbl=1;backgroundOutline=1;size=15;" parent="1" vertex="1">
          <mxGeometry x="910" y="530" width="60" height="80" as="geometry" />
        </mxCell>
        <mxCell id="avd21NchycmkGDBWKclg-2" value="" style="endArrow=none;dashed=1;html=1;dashPattern=1 3;strokeWidth=2;rounded=0;" parent="1" edge="1">
          <mxGeometry width="50" height="50" relative="1" as="geometry">
            <mxPoint x="620" y="520" as="sourcePoint" />
            <mxPoint x="1050" y="520" as="targetPoint" />
          </mxGeometry>
        </mxCell>
        <mxCell id="avd21NchycmkGDBWKclg-3" value="PokemonDAO" style="swimlane;fontStyle=1;align=center;verticalAlign=top;childLayout=stackLayout;horizontal=1;startSize=26;horizontalStack=0;resizeParent=1;resizeParentMax=0;resizeLast=0;collapsible=1;marginBottom=0;whiteSpace=wrap;html=1;" parent="1" vertex="1">
          <mxGeometry x="810" y="414" width="160" height="86" as="geometry" />
        </mxCell>
        <mxCell id="avd21NchycmkGDBWKclg-4" value="+ field: type" style="text;strokeColor=none;fillColor=none;align=left;verticalAlign=top;spacingLeft=4;spacingRight=4;overflow=hidden;rotatable=0;points=[[0,0.5],[1,0.5]];portConstraint=eastwest;whiteSpace=wrap;html=1;" parent="avd21NchycmkGDBWKclg-3" vertex="1">
          <mxGeometry y="26" width="160" height="26" as="geometry" />
        </mxCell>
        <mxCell id="avd21NchycmkGDBWKclg-5" value="" style="line;strokeWidth=1;fillColor=none;align=left;verticalAlign=middle;spacingTop=-1;spacingLeft=3;spacingRight=3;rotatable=0;labelPosition=right;points=[];portConstraint=eastwest;strokeColor=inherit;" parent="avd21NchycmkGDBWKclg-3" vertex="1">
          <mxGeometry y="52" width="160" height="8" as="geometry" />
        </mxCell>
        <mxCell id="avd21NchycmkGDBWKclg-6" value="+ method(type): type" style="text;strokeColor=none;fillColor=none;align=left;verticalAlign=top;spacingLeft=4;spacingRight=4;overflow=hidden;rotatable=0;points=[[0,0.5],[1,0.5]];portConstraint=eastwest;whiteSpace=wrap;html=1;" parent="avd21NchycmkGDBWKclg-3" vertex="1">
          <mxGeometry y="60" width="160" height="26" as="geometry" />
        </mxCell>
        <mxCell id="avd21NchycmkGDBWKclg-7" value="" style="endArrow=none;dashed=1;html=1;dashPattern=1 3;strokeWidth=2;rounded=0;" parent="1" edge="1">
          <mxGeometry width="50" height="50" relative="1" as="geometry">
            <mxPoint x="630" y="400" as="sourcePoint" />
            <mxPoint x="1055" y="400" as="targetPoint" />
          </mxGeometry>
        </mxCell>
        <mxCell id="avd21NchycmkGDBWKclg-8" value="repos" style="shape=folder;fontStyle=1;spacingTop=10;tabWidth=40;tabHeight=14;tabPosition=left;html=1;whiteSpace=wrap;" parent="1" vertex="1">
          <mxGeometry x="1010" y="432" width="70" height="50" as="geometry" />
        </mxCell>
        <mxCell id="avd21NchycmkGDBWKclg-9" value="" style="endArrow=none;dashed=1;html=1;dashPattern=1 3;strokeWidth=2;rounded=0;" parent="1" edge="1">
          <mxGeometry width="50" height="50" relative="1" as="geometry">
            <mxPoint x="820" y="290" as="sourcePoint" />
            <mxPoint x="1050" y="290" as="targetPoint" />
          </mxGeometry>
        </mxCell>
        <mxCell id="avd21NchycmkGDBWKclg-10" value="service" style="shape=folder;fontStyle=1;spacingTop=10;tabWidth=40;tabHeight=14;tabPosition=left;html=1;whiteSpace=wrap;" parent="1" vertex="1">
          <mxGeometry x="1010" y="320" width="70" height="50" as="geometry" />
        </mxCell>
        <mxCell id="avd21NchycmkGDBWKclg-11" value="PokemonService" style="swimlane;fontStyle=1;align=center;verticalAlign=top;childLayout=stackLayout;horizontal=1;startSize=26;horizontalStack=0;resizeParent=1;resizeParentMax=0;resizeLast=0;collapsible=1;marginBottom=0;whiteSpace=wrap;html=1;" parent="1" vertex="1">
          <mxGeometry x="810" y="302" width="160" height="86" as="geometry" />
        </mxCell>
        <mxCell id="avd21NchycmkGDBWKclg-12" value="+ field: type" style="text;strokeColor=none;fillColor=none;align=left;verticalAlign=top;spacingLeft=4;spacingRight=4;overflow=hidden;rotatable=0;points=[[0,0.5],[1,0.5]];portConstraint=eastwest;whiteSpace=wrap;html=1;" parent="avd21NchycmkGDBWKclg-11" vertex="1">
          <mxGeometry y="26" width="160" height="26" as="geometry" />
        </mxCell>
        <mxCell id="avd21NchycmkGDBWKclg-13" value="" style="line;strokeWidth=1;fillColor=none;align=left;verticalAlign=middle;spacingTop=-1;spacingLeft=3;spacingRight=3;rotatable=0;labelPosition=right;points=[];portConstraint=eastwest;strokeColor=inherit;" parent="avd21NchycmkGDBWKclg-11" vertex="1">
          <mxGeometry y="52" width="160" height="8" as="geometry" />
        </mxCell>
        <mxCell id="avd21NchycmkGDBWKclg-14" value="+ method(type): type" style="text;strokeColor=none;fillColor=none;align=left;verticalAlign=top;spacingLeft=4;spacingRight=4;overflow=hidden;rotatable=0;points=[[0,0.5],[1,0.5]];portConstraint=eastwest;whiteSpace=wrap;html=1;" parent="avd21NchycmkGDBWKclg-11" vertex="1">
          <mxGeometry y="60" width="160" height="26" as="geometry" />
        </mxCell>
        <mxCell id="avd21NchycmkGDBWKclg-15" value="TipiPokemonDAO" style="swimlane;fontStyle=1;align=center;verticalAlign=top;childLayout=stackLayout;horizontal=1;startSize=26;horizontalStack=0;resizeParent=1;resizeParentMax=0;resizeLast=0;collapsible=1;marginBottom=0;whiteSpace=wrap;html=1;" parent="1" vertex="1">
          <mxGeometry x="630" y="414" width="160" height="86" as="geometry" />
        </mxCell>
        <mxCell id="avd21NchycmkGDBWKclg-16" value="+ field: type" style="text;strokeColor=none;fillColor=none;align=left;verticalAlign=top;spacingLeft=4;spacingRight=4;overflow=hidden;rotatable=0;points=[[0,0.5],[1,0.5]];portConstraint=eastwest;whiteSpace=wrap;html=1;" parent="avd21NchycmkGDBWKclg-15" vertex="1">
          <mxGeometry y="26" width="160" height="26" as="geometry" />
        </mxCell>
        <mxCell id="avd21NchycmkGDBWKclg-17" value="" style="line;strokeWidth=1;fillColor=none;align=left;verticalAlign=middle;spacingTop=-1;spacingLeft=3;spacingRight=3;rotatable=0;labelPosition=right;points=[];portConstraint=eastwest;strokeColor=inherit;" parent="avd21NchycmkGDBWKclg-15" vertex="1">
          <mxGeometry y="52" width="160" height="8" as="geometry" />
        </mxCell>
        <mxCell id="avd21NchycmkGDBWKclg-18" value="+ method(type): type" style="text;strokeColor=none;fillColor=none;align=left;verticalAlign=top;spacingLeft=4;spacingRight=4;overflow=hidden;rotatable=0;points=[[0,0.5],[1,0.5]];portConstraint=eastwest;whiteSpace=wrap;html=1;" parent="avd21NchycmkGDBWKclg-15" vertex="1">
          <mxGeometry y="60" width="160" height="26" as="geometry" />
        </mxCell>
        <mxCell id="avd21NchycmkGDBWKclg-19" value="" style="endArrow=none;dashed=1;html=1;dashPattern=1 3;strokeWidth=2;rounded=0;" parent="1" edge="1">
          <mxGeometry width="50" height="50" relative="1" as="geometry">
            <mxPoint x="820" y="190" as="sourcePoint" />
            <mxPoint x="1050" y="190" as="targetPoint" />
          </mxGeometry>
        </mxCell>
        <mxCell id="avd21NchycmkGDBWKclg-20" value="controller" style="shape=folder;fontStyle=1;spacingTop=10;tabWidth=40;tabHeight=14;tabPosition=left;html=1;whiteSpace=wrap;" parent="1" vertex="1">
          <mxGeometry x="1010" y="220" width="70" height="50" as="geometry" />
        </mxCell>
        <mxCell id="avd21NchycmkGDBWKclg-21" value="PokemonCtrl" style="swimlane;fontStyle=1;align=center;verticalAlign=top;childLayout=stackLayout;horizontal=1;startSize=26;horizontalStack=0;resizeParent=1;resizeParentMax=0;resizeLast=0;collapsible=1;marginBottom=0;whiteSpace=wrap;html=1;" parent="1" vertex="1">
          <mxGeometry x="810" y="200" width="160" height="86" as="geometry" />
        </mxCell>
        <mxCell id="avd21NchycmkGDBWKclg-22" value="+ field: type" style="text;strokeColor=none;fillColor=none;align=left;verticalAlign=top;spacingLeft=4;spacingRight=4;overflow=hidden;rotatable=0;points=[[0,0.5],[1,0.5]];portConstraint=eastwest;whiteSpace=wrap;html=1;" parent="avd21NchycmkGDBWKclg-21" vertex="1">
          <mxGeometry y="26" width="160" height="26" as="geometry" />
        </mxCell>
        <mxCell id="avd21NchycmkGDBWKclg-23" value="" style="line;strokeWidth=1;fillColor=none;align=left;verticalAlign=middle;spacingTop=-1;spacingLeft=3;spacingRight=3;rotatable=0;labelPosition=right;points=[];portConstraint=eastwest;strokeColor=inherit;" parent="avd21NchycmkGDBWKclg-21" vertex="1">
          <mxGeometry y="52" width="160" height="8" as="geometry" />
        </mxCell>
        <mxCell id="avd21NchycmkGDBWKclg-24" value="+ method(type): type" style="text;strokeColor=none;fillColor=none;align=left;verticalAlign=top;spacingLeft=4;spacingRight=4;overflow=hidden;rotatable=0;points=[[0,0.5],[1,0.5]];portConstraint=eastwest;whiteSpace=wrap;html=1;" parent="avd21NchycmkGDBWKclg-21" vertex="1">
          <mxGeometry y="60" width="160" height="26" as="geometry" />
        </mxCell>
        <mxCell id="avd21NchycmkGDBWKclg-30" style="edgeStyle=orthogonalEdgeStyle;rounded=0;orthogonalLoop=1;jettySize=auto;html=1;exitX=0;exitY=0.75;exitDx=0;exitDy=0;entryX=1;entryY=0;entryDx=0;entryDy=0;" parent="1" source="avd21NchycmkGDBWKclg-25" target="avd21NchycmkGDBWKclg-29" edge="1">
          <mxGeometry relative="1" as="geometry" />
        </mxCell>
        <mxCell id="avd21NchycmkGDBWKclg-25" value="" style="image;aspect=fixed;perimeter=ellipsePerimeter;html=1;align=center;shadow=0;dashed=0;spacingTop=3;image=img/lib/active_directory/mac_client.svg;" parent="1" vertex="1">
          <mxGeometry x="1070" y="10" width="47" height="50" as="geometry" />
        </mxCell>
        <mxCell id="avd21NchycmkGDBWKclg-27" value="" style="dashed=0;outlineConnect=0;html=1;align=center;labelPosition=center;verticalLabelPosition=bottom;verticalAlign=top;shape=mxgraph.webicons.html5;gradientColor=#DFDEDE" parent="1" vertex="1">
          <mxGeometry x="690.0000000000001" y="20.00000000000001" width="52.4" height="52.4" as="geometry" />
        </mxCell>
        <mxCell id="avd21NchycmkGDBWKclg-51" style="edgeStyle=orthogonalEdgeStyle;rounded=0;orthogonalLoop=1;jettySize=auto;html=1;exitX=1;exitY=0.5;exitDx=0;exitDy=0;entryX=0.75;entryY=1;entryDx=0;entryDy=0;" parent="1" source="avd21NchycmkGDBWKclg-28" target="avd21NchycmkGDBWKclg-25" edge="1">
          <mxGeometry relative="1" as="geometry" />
        </mxCell>
        <mxCell id="avd21NchycmkGDBWKclg-28" value="" style="image;aspect=fixed;perimeter=ellipsePerimeter;html=1;align=center;shadow=0;dashed=0;spacingTop=3;image=img/lib/active_directory/generic_server.svg;" parent="1" vertex="1">
          <mxGeometry x="860" y="101.43" width="44" height="78.57" as="geometry" />
        </mxCell>
        <mxCell id="avd21NchycmkGDBWKclg-31" style="edgeStyle=orthogonalEdgeStyle;rounded=0;orthogonalLoop=1;jettySize=auto;html=1;exitX=0;exitY=1;exitDx=0;exitDy=0;" parent="1" source="avd21NchycmkGDBWKclg-29" target="avd21NchycmkGDBWKclg-28" edge="1">
          <mxGeometry relative="1" as="geometry" />
        </mxCell>
        <mxCell id="avd21NchycmkGDBWKclg-29" value="" style="image;aspect=fixed;perimeter=ellipsePerimeter;html=1;align=center;shadow=0;dashed=0;spacingTop=3;image=img/lib/active_directory/internet_cloud.svg;" parent="1" vertex="1">
          <mxGeometry x="970" y="63.25" width="50" height="31.5" as="geometry" />
        </mxCell>
        <mxCell id="avd21NchycmkGDBWKclg-33" value="Pokemon" style="swimlane;fontStyle=1;align=center;verticalAlign=top;childLayout=stackLayout;horizontal=1;startSize=26;horizontalStack=0;resizeParent=1;resizeParentMax=0;resizeLast=0;collapsible=1;marginBottom=0;whiteSpace=wrap;html=1;" parent="1" vertex="1">
          <mxGeometry x="340" y="414" width="160" height="86" as="geometry" />
        </mxCell>
        <mxCell id="avd21NchycmkGDBWKclg-34" value="+ id: type" style="text;strokeColor=none;fillColor=none;align=left;verticalAlign=top;spacingLeft=4;spacingRight=4;overflow=hidden;rotatable=0;points=[[0,0.5],[1,0.5]];portConstraint=eastwest;whiteSpace=wrap;html=1;" parent="avd21NchycmkGDBWKclg-33" vertex="1">
          <mxGeometry y="26" width="160" height="26" as="geometry" />
        </mxCell>
        <mxCell id="avd21NchycmkGDBWKclg-35" value="" style="line;strokeWidth=1;fillColor=none;align=left;verticalAlign=middle;spacingTop=-1;spacingLeft=3;spacingRight=3;rotatable=0;labelPosition=right;points=[];portConstraint=eastwest;strokeColor=inherit;" parent="avd21NchycmkGDBWKclg-33" vertex="1">
          <mxGeometry y="52" width="160" height="8" as="geometry" />
        </mxCell>
        <mxCell id="avd21NchycmkGDBWKclg-36" value="+ method(type): type" style="text;strokeColor=none;fillColor=none;align=left;verticalAlign=top;spacingLeft=4;spacingRight=4;overflow=hidden;rotatable=0;points=[[0,0.5],[1,0.5]];portConstraint=eastwest;whiteSpace=wrap;html=1;" parent="avd21NchycmkGDBWKclg-33" vertex="1">
          <mxGeometry y="60" width="160" height="26" as="geometry" />
        </mxCell>
        <mxCell id="avd21NchycmkGDBWKclg-37" value="Pokemon" style="shape=table;startSize=30;container=1;collapsible=1;childLayout=tableLayout;fixedRows=1;rowLines=0;fontStyle=1;align=center;resizeLast=1;html=1;" parent="1" vertex="1">
          <mxGeometry x="330" y="550" width="180" height="150" as="geometry" />
        </mxCell>
        <mxCell id="avd21NchycmkGDBWKclg-38" value="" style="shape=tableRow;horizontal=0;startSize=0;swimlaneHead=0;swimlaneBody=0;fillColor=none;collapsible=0;dropTarget=0;points=[[0,0.5],[1,0.5]];portConstraint=eastwest;top=0;left=0;right=0;bottom=1;" parent="avd21NchycmkGDBWKclg-37" vertex="1">
          <mxGeometry y="30" width="180" height="30" as="geometry" />
        </mxCell>
        <mxCell id="avd21NchycmkGDBWKclg-39" value="PK" style="shape=partialRectangle;connectable=0;fillColor=none;top=0;left=0;bottom=0;right=0;fontStyle=1;overflow=hidden;whiteSpace=wrap;html=1;" parent="avd21NchycmkGDBWKclg-38" vertex="1">
          <mxGeometry width="30" height="30" as="geometry">
            <mxRectangle width="30" height="30" as="alternateBounds" />
          </mxGeometry>
        </mxCell>
        <mxCell id="avd21NchycmkGDBWKclg-40" value="id" style="shape=partialRectangle;connectable=0;fillColor=none;top=0;left=0;bottom=0;right=0;align=left;spacingLeft=6;fontStyle=5;overflow=hidden;whiteSpace=wrap;html=1;" parent="avd21NchycmkGDBWKclg-38" vertex="1">
          <mxGeometry x="30" width="150" height="30" as="geometry">
            <mxRectangle width="150" height="30" as="alternateBounds" />
          </mxGeometry>
        </mxCell>
        <mxCell id="avd21NchycmkGDBWKclg-41" value="" style="shape=tableRow;horizontal=0;startSize=0;swimlaneHead=0;swimlaneBody=0;fillColor=none;collapsible=0;dropTarget=0;points=[[0,0.5],[1,0.5]];portConstraint=eastwest;top=0;left=0;right=0;bottom=0;" parent="avd21NchycmkGDBWKclg-37" vertex="1">
          <mxGeometry y="60" width="180" height="30" as="geometry" />
        </mxCell>
        <mxCell id="avd21NchycmkGDBWKclg-42" value="" style="shape=partialRectangle;connectable=0;fillColor=none;top=0;left=0;bottom=0;right=0;editable=1;overflow=hidden;whiteSpace=wrap;html=1;" parent="avd21NchycmkGDBWKclg-41" vertex="1">
          <mxGeometry width="30" height="30" as="geometry">
            <mxRectangle width="30" height="30" as="alternateBounds" />
          </mxGeometry>
        </mxCell>
        <mxCell id="avd21NchycmkGDBWKclg-43" value="name" style="shape=partialRectangle;connectable=0;fillColor=none;top=0;left=0;bottom=0;right=0;align=left;spacingLeft=6;overflow=hidden;whiteSpace=wrap;html=1;" parent="avd21NchycmkGDBWKclg-41" vertex="1">
          <mxGeometry x="30" width="150" height="30" as="geometry">
            <mxRectangle width="150" height="30" as="alternateBounds" />
          </mxGeometry>
        </mxCell>
        <mxCell id="avd21NchycmkGDBWKclg-44" value="" style="shape=tableRow;horizontal=0;startSize=0;swimlaneHead=0;swimlaneBody=0;fillColor=none;collapsible=0;dropTarget=0;points=[[0,0.5],[1,0.5]];portConstraint=eastwest;top=0;left=0;right=0;bottom=0;" parent="avd21NchycmkGDBWKclg-37" vertex="1">
          <mxGeometry y="90" width="180" height="30" as="geometry" />
        </mxCell>
        <mxCell id="avd21NchycmkGDBWKclg-45" value="" style="shape=partialRectangle;connectable=0;fillColor=none;top=0;left=0;bottom=0;right=0;editable=1;overflow=hidden;whiteSpace=wrap;html=1;" parent="avd21NchycmkGDBWKclg-44" vertex="1">
          <mxGeometry width="30" height="30" as="geometry">
            <mxRectangle width="30" height="30" as="alternateBounds" />
          </mxGeometry>
        </mxCell>
        <mxCell id="avd21NchycmkGDBWKclg-46" value="Row 2" style="shape=partialRectangle;connectable=0;fillColor=none;top=0;left=0;bottom=0;right=0;align=left;spacingLeft=6;overflow=hidden;whiteSpace=wrap;html=1;" parent="avd21NchycmkGDBWKclg-44" vertex="1">
          <mxGeometry x="30" width="150" height="30" as="geometry">
            <mxRectangle width="150" height="30" as="alternateBounds" />
          </mxGeometry>
        </mxCell>
        <mxCell id="avd21NchycmkGDBWKclg-47" value="" style="shape=tableRow;horizontal=0;startSize=0;swimlaneHead=0;swimlaneBody=0;fillColor=none;collapsible=0;dropTarget=0;points=[[0,0.5],[1,0.5]];portConstraint=eastwest;top=0;left=0;right=0;bottom=0;" parent="avd21NchycmkGDBWKclg-37" vertex="1">
          <mxGeometry y="120" width="180" height="30" as="geometry" />
        </mxCell>
        <mxCell id="avd21NchycmkGDBWKclg-48" value="" style="shape=partialRectangle;connectable=0;fillColor=none;top=0;left=0;bottom=0;right=0;editable=1;overflow=hidden;whiteSpace=wrap;html=1;" parent="avd21NchycmkGDBWKclg-47" vertex="1">
          <mxGeometry width="30" height="30" as="geometry">
            <mxRectangle width="30" height="30" as="alternateBounds" />
          </mxGeometry>
        </mxCell>
        <mxCell id="avd21NchycmkGDBWKclg-49" value="Row 3" style="shape=partialRectangle;connectable=0;fillColor=none;top=0;left=0;bottom=0;right=0;align=left;spacingLeft=6;overflow=hidden;whiteSpace=wrap;html=1;" parent="avd21NchycmkGDBWKclg-47" vertex="1">
          <mxGeometry x="30" width="150" height="30" as="geometry">
            <mxRectangle width="150" height="30" as="alternateBounds" />
          </mxGeometry>
        </mxCell>
        <mxCell id="avd21NchycmkGDBWKclg-50" value="entities" style="shape=folder;fontStyle=1;spacingTop=10;tabWidth=40;tabHeight=14;tabPosition=left;html=1;whiteSpace=wrap;" parent="1" vertex="1">
          <mxGeometry x="220" y="432" width="70" height="50" as="geometry" />
        </mxCell>
        <mxCell id="avd21NchycmkGDBWKclg-52" value="" style="dashed=0;outlineConnect=0;html=1;align=center;labelPosition=center;verticalLabelPosition=bottom;verticalAlign=top;shape=mxgraph.weblogos.json" parent="1" vertex="1">
          <mxGeometry x="690" y="134.2" width="40" height="45.8" as="geometry" />
        </mxCell>
        <mxCell id="avd21NchycmkGDBWKclg-53" value="" style="shape=image;html=1;verticalAlign=top;verticalLabelPosition=bottom;labelBackgroundColor=#ffffff;imageAspect=0;aspect=fixed;image=https://cdn4.iconfinder.com/data/icons/scripting-and-programming-languages/512/js-128.png" parent="1" vertex="1">
          <mxGeometry x="1121" y="10" width="48" height="48" as="geometry" />
        </mxCell>
      </root>
    </mxGraphModel>
  </diagram>
  <diagram id="QrfHXSf7lz-DC337CxUe" name="Pagina-2">
    <mxGraphModel dx="1247" dy="671" grid="1" gridSize="10" guides="1" tooltips="1" connect="1" arrows="1" fold="1" page="1" pageScale="1" pageWidth="1169" pageHeight="827" math="0" shadow="0">
      <root>
        <mxCell id="0" />
        <mxCell id="1" parent="0" />
        <mxCell id="bJx0PIyWjf9fioj1TdGY-1" value="" style="strokeWidth=1;shadow=0;dashed=0;align=center;html=1;shape=mxgraph.mockup.containers.browserWindow;rSize=0;strokeColor=#666666;strokeColor2=#008cff;strokeColor3=#c4c4c4;mainText=,;recursiveResize=0;" vertex="1" parent="1">
          <mxGeometry x="30" y="80" width="530" height="380" as="geometry" />
        </mxCell>
        <mxCell id="bJx0PIyWjf9fioj1TdGY-2" value="Page 1" style="strokeWidth=1;shadow=0;dashed=0;align=center;html=1;shape=mxgraph.mockup.containers.anchor;fontSize=17;fontColor=#666666;align=left;whiteSpace=wrap;" vertex="1" parent="bJx0PIyWjf9fioj1TdGY-1">
          <mxGeometry x="60" y="12" width="110" height="26" as="geometry" />
        </mxCell>
        <mxCell id="bJx0PIyWjf9fioj1TdGY-3" value="https://www.draw.io" style="strokeWidth=1;shadow=0;dashed=0;align=center;html=1;shape=mxgraph.mockup.containers.anchor;rSize=0;fontSize=17;fontColor=#666666;align=left;" vertex="1" parent="bJx0PIyWjf9fioj1TdGY-1">
          <mxGeometry x="130" y="60" width="250" height="26" as="geometry" />
        </mxCell>
        <mxCell id="bJx0PIyWjf9fioj1TdGY-4" value="Training" style="html=1;shadow=0;dashed=0;shape=mxgraph.bootstrap.rrect;rSize=5;strokeColor=none;strokeWidth=1;fillColor=#0085FC;fontColor=#FFFFFF;whiteSpace=wrap;align=left;verticalAlign=middle;spacingLeft=0;fontStyle=1;fontSize=14;spacing=5;" vertex="1" parent="bJx0PIyWjf9fioj1TdGY-1">
          <mxGeometry x="140" y="190" width="60" height="20" as="geometry" />
        </mxCell>
        <mxCell id="bJx0PIyWjf9fioj1TdGY-5" value="Test" style="html=1;shadow=0;dashed=0;shape=mxgraph.bootstrap.rrect;rSize=5;strokeColor=none;strokeWidth=1;fillColor=#0085FC;fontColor=#FFFFFF;whiteSpace=wrap;align=left;verticalAlign=middle;spacingLeft=0;fontStyle=1;fontSize=14;spacing=5;" vertex="1" parent="bJx0PIyWjf9fioj1TdGY-1">
          <mxGeometry x="140" y="230" width="60" height="20" as="geometry" />
        </mxCell>
        <mxCell id="bJx0PIyWjf9fioj1TdGY-6" value="Training" style="html=1;shadow=0;dashed=0;shape=mxgraph.bootstrap.rrect;rSize=5;strokeColor=none;strokeWidth=1;fillColor=#0085FC;fontColor=#FFFFFF;whiteSpace=wrap;align=left;verticalAlign=middle;spacingLeft=0;fontStyle=1;fontSize=14;spacing=5;" vertex="1" parent="bJx0PIyWjf9fioj1TdGY-1">
          <mxGeometry x="295" y="190" width="60" height="20" as="geometry" />
        </mxCell>
        <mxCell id="bJx0PIyWjf9fioj1TdGY-7" value="Test" style="html=1;shadow=0;dashed=0;shape=mxgraph.bootstrap.rrect;rSize=5;strokeColor=none;strokeWidth=1;fillColor=#0085FC;fontColor=#FFFFFF;whiteSpace=wrap;align=left;verticalAlign=middle;spacingLeft=0;fontStyle=1;fontSize=14;spacing=5;" vertex="1" parent="bJx0PIyWjf9fioj1TdGY-1">
          <mxGeometry x="295" y="230" width="60" height="20" as="geometry" />
        </mxCell>
        <mxCell id="bJx0PIyWjf9fioj1TdGY-8" value="Capitali" style="text;html=1;align=center;verticalAlign=middle;whiteSpace=wrap;rounded=0;" vertex="1" parent="bJx0PIyWjf9fioj1TdGY-1">
          <mxGeometry x="138" y="160" width="60" height="30" as="geometry" />
        </mxCell>
        <mxCell id="bJx0PIyWjf9fioj1TdGY-9" value="Bandiere" style="text;html=1;align=center;verticalAlign=middle;whiteSpace=wrap;rounded=0;" vertex="1" parent="bJx0PIyWjf9fioj1TdGY-1">
          <mxGeometry x="295" y="160" width="60" height="30" as="geometry" />
        </mxCell>
        <mxCell id="bJx0PIyWjf9fioj1TdGY-10" value="modalità" style="text;html=1;align=center;verticalAlign=middle;whiteSpace=wrap;rounded=0;" vertex="1" parent="bJx0PIyWjf9fioj1TdGY-1">
          <mxGeometry x="60" y="310" width="60" height="30" as="geometry" />
        </mxCell>
        <mxCell id="bJx0PIyWjf9fioj1TdGY-11" value="Allenamento" style="html=1;shadow=0;dashed=0;shape=mxgraph.bootstrap.rrect;rSize=5;strokeColor=none;strokeWidth=1;fillColor=#0085FC;fontColor=#FFFFFF;whiteSpace=wrap;align=left;verticalAlign=middle;spacingLeft=0;fontStyle=1;fontSize=14;spacing=5;" vertex="1" parent="bJx0PIyWjf9fioj1TdGY-1">
          <mxGeometry x="138" y="315" width="102" height="25" as="geometry" />
        </mxCell>
        <mxCell id="bJx0PIyWjf9fioj1TdGY-12" value="Gara" style="html=1;shadow=0;dashed=0;shape=mxgraph.bootstrap.rrect;rSize=5;strokeColor=none;strokeWidth=1;fillColor=#0085FC;fontColor=#FFFFFF;whiteSpace=wrap;align=left;verticalAlign=middle;spacingLeft=0;fontStyle=1;fontSize=14;spacing=5;" vertex="1" parent="bJx0PIyWjf9fioj1TdGY-1">
          <mxGeometry x="245" y="315" width="60" height="25" as="geometry" />
        </mxCell>
        <mxCell id="bJx0PIyWjf9fioj1TdGY-66" value="Quiz capitali" style="text;strokeColor=none;fillColor=none;html=1;fontSize=24;fontStyle=1;verticalAlign=middle;align=center;" vertex="1" parent="bJx0PIyWjf9fioj1TdGY-1">
          <mxGeometry x="205" y="120" width="100" height="40" as="geometry" />
        </mxCell>
        <mxCell id="bJx0PIyWjf9fioj1TdGY-144" value="Report" style="html=1;shadow=0;dashed=0;shape=mxgraph.bootstrap.rrect;rSize=5;strokeColor=none;strokeWidth=1;fillColor=#0085FC;fontColor=#FFFFFF;whiteSpace=wrap;align=left;verticalAlign=middle;spacingLeft=0;fontStyle=1;fontSize=14;spacing=5;" vertex="1" parent="bJx0PIyWjf9fioj1TdGY-1">
          <mxGeometry x="310" y="315" width="60" height="25" as="geometry" />
        </mxCell>
        <mxCell id="bJx0PIyWjf9fioj1TdGY-145" value="Memory" style="html=1;shadow=0;dashed=0;shape=mxgraph.bootstrap.rrect;rSize=5;strokeColor=none;strokeWidth=1;fillColor=#0085FC;fontColor=#FFFFFF;whiteSpace=wrap;align=left;verticalAlign=middle;spacingLeft=0;fontStyle=1;fontSize=14;spacing=5;" vertex="1" parent="bJx0PIyWjf9fioj1TdGY-1">
          <mxGeometry x="375" y="315" width="75" height="25" as="geometry" />
        </mxCell>
        <mxCell id="bJx0PIyWjf9fioj1TdGY-13" value="" style="strokeWidth=1;shadow=0;dashed=0;align=center;html=1;shape=mxgraph.mockup.containers.browserWindow;rSize=0;strokeColor=#666666;strokeColor2=#008cff;strokeColor3=#c4c4c4;mainText=,;recursiveResize=0;" vertex="1" parent="1">
          <mxGeometry x="30" y="500" width="530" height="380" as="geometry" />
        </mxCell>
        <mxCell id="bJx0PIyWjf9fioj1TdGY-14" value="Page 1" style="strokeWidth=1;shadow=0;dashed=0;align=center;html=1;shape=mxgraph.mockup.containers.anchor;fontSize=17;fontColor=#666666;align=left;whiteSpace=wrap;" vertex="1" parent="bJx0PIyWjf9fioj1TdGY-13">
          <mxGeometry x="60" y="12" width="110" height="26" as="geometry" />
        </mxCell>
        <mxCell id="bJx0PIyWjf9fioj1TdGY-15" value="https://www.draw.io" style="strokeWidth=1;shadow=0;dashed=0;align=center;html=1;shape=mxgraph.mockup.containers.anchor;rSize=0;fontSize=17;fontColor=#666666;align=left;" vertex="1" parent="bJx0PIyWjf9fioj1TdGY-13">
          <mxGeometry x="130" y="60" width="250" height="26" as="geometry" />
        </mxCell>
        <mxCell id="bJx0PIyWjf9fioj1TdGY-25" value="La capitale dello stato" style="text;strokeColor=none;fillColor=none;html=1;fontSize=24;fontStyle=1;verticalAlign=middle;align=center;" vertex="1" parent="bJx0PIyWjf9fioj1TdGY-13">
          <mxGeometry x="220" y="150" width="100" height="40" as="geometry" />
        </mxCell>
        <mxCell id="bJx0PIyWjf9fioj1TdGY-26" value="Francia" style="text;strokeColor=#6c8ebf;fillColor=#dae8fc;html=1;fontSize=24;fontStyle=1;verticalAlign=middle;align=center;" vertex="1" parent="bJx0PIyWjf9fioj1TdGY-13">
          <mxGeometry x="225" y="210" width="100" height="40" as="geometry" />
        </mxCell>
        <mxCell id="bJx0PIyWjf9fioj1TdGY-27" value="Parigi" style="text;strokeColor=#82b366;fillColor=#d5e8d4;html=1;fontSize=24;fontStyle=1;verticalAlign=middle;align=center;" vertex="1" parent="bJx0PIyWjf9fioj1TdGY-13">
          <mxGeometry x="225" y="270" width="100" height="40" as="geometry" />
        </mxCell>
        <mxCell id="bJx0PIyWjf9fioj1TdGY-28" value="Nuova scheda" style="html=1;shadow=0;dashed=0;shape=mxgraph.bootstrap.rrect;rSize=5;strokeColor=none;strokeWidth=1;fillColor=#0085FC;fontColor=#FFFFFF;whiteSpace=wrap;align=left;verticalAlign=middle;spacingLeft=0;fontStyle=1;fontSize=14;spacing=5;" vertex="1" parent="bJx0PIyWjf9fioj1TdGY-13">
          <mxGeometry x="218" y="330" width="132" height="25" as="geometry" />
        </mxCell>
        <mxCell id="bJx0PIyWjf9fioj1TdGY-70" value="training" style="text;strokeColor=#314354;fillColor=#647687;html=1;fontSize=24;fontStyle=1;verticalAlign=middle;align=center;fontColor=#ffffff;" vertex="1" parent="bJx0PIyWjf9fioj1TdGY-13">
          <mxGeometry y="110" width="100" height="40" as="geometry" />
        </mxCell>
        <mxCell id="bJx0PIyWjf9fioj1TdGY-29" value="" style="strokeWidth=1;shadow=0;dashed=0;align=center;html=1;shape=mxgraph.mockup.containers.browserWindow;rSize=0;strokeColor=#666666;strokeColor2=#008cff;strokeColor3=#c4c4c4;mainText=,;recursiveResize=0;" vertex="1" parent="1">
          <mxGeometry x="30" y="970" width="530" height="380" as="geometry" />
        </mxCell>
        <mxCell id="bJx0PIyWjf9fioj1TdGY-30" value="Page 1" style="strokeWidth=1;shadow=0;dashed=0;align=center;html=1;shape=mxgraph.mockup.containers.anchor;fontSize=17;fontColor=#666666;align=left;whiteSpace=wrap;" vertex="1" parent="bJx0PIyWjf9fioj1TdGY-29">
          <mxGeometry x="60" y="12" width="110" height="26" as="geometry" />
        </mxCell>
        <mxCell id="bJx0PIyWjf9fioj1TdGY-31" value="https://www.draw.io" style="strokeWidth=1;shadow=0;dashed=0;align=center;html=1;shape=mxgraph.mockup.containers.anchor;rSize=0;fontSize=17;fontColor=#666666;align=left;" vertex="1" parent="bJx0PIyWjf9fioj1TdGY-29">
          <mxGeometry x="130" y="60" width="250" height="26" as="geometry" />
        </mxCell>
        <mxCell id="bJx0PIyWjf9fioj1TdGY-32" value="La bandiera dello stato" style="text;strokeColor=none;fillColor=none;html=1;fontSize=24;fontStyle=1;verticalAlign=middle;align=center;" vertex="1" parent="bJx0PIyWjf9fioj1TdGY-29">
          <mxGeometry x="220" y="150" width="100" height="40" as="geometry" />
        </mxCell>
        <mxCell id="bJx0PIyWjf9fioj1TdGY-33" value="Francia" style="text;strokeColor=#6c8ebf;fillColor=#dae8fc;html=1;fontSize=24;fontStyle=1;verticalAlign=middle;align=center;" vertex="1" parent="bJx0PIyWjf9fioj1TdGY-29">
          <mxGeometry x="225" y="210" width="100" height="40" as="geometry" />
        </mxCell>
        <mxCell id="bJx0PIyWjf9fioj1TdGY-35" value="Nuova scheda" style="html=1;shadow=0;dashed=0;shape=mxgraph.bootstrap.rrect;rSize=5;strokeColor=none;strokeWidth=1;fillColor=#0085FC;fontColor=#FFFFFF;whiteSpace=wrap;align=left;verticalAlign=middle;spacingLeft=0;fontStyle=1;fontSize=14;spacing=5;" vertex="1" parent="bJx0PIyWjf9fioj1TdGY-29">
          <mxGeometry x="218" y="336" width="132" height="25" as="geometry" />
        </mxCell>
        <mxCell id="bJx0PIyWjf9fioj1TdGY-38" value="" style="rounded=0;whiteSpace=wrap;html=1;fillColor=#0050ef;fontColor=#ffffff;strokeColor=#001DBC;" vertex="1" parent="bJx0PIyWjf9fioj1TdGY-29">
          <mxGeometry x="214" y="260" width="40" height="60" as="geometry" />
        </mxCell>
        <mxCell id="bJx0PIyWjf9fioj1TdGY-39" value="" style="rounded=0;whiteSpace=wrap;html=1;" vertex="1" parent="bJx0PIyWjf9fioj1TdGY-29">
          <mxGeometry x="255" y="260" width="40" height="60" as="geometry" />
        </mxCell>
        <mxCell id="bJx0PIyWjf9fioj1TdGY-40" value="" style="rounded=0;whiteSpace=wrap;html=1;fillColor=#e51400;fontColor=#ffffff;strokeColor=#B20000;" vertex="1" parent="bJx0PIyWjf9fioj1TdGY-29">
          <mxGeometry x="296.5" y="260" width="40" height="60" as="geometry" />
        </mxCell>
        <mxCell id="bJx0PIyWjf9fioj1TdGY-71" value="training" style="text;strokeColor=#314354;fillColor=#647687;html=1;fontSize=24;fontStyle=1;verticalAlign=middle;align=center;fontColor=#ffffff;" vertex="1" parent="bJx0PIyWjf9fioj1TdGY-29">
          <mxGeometry y="110" width="100" height="40" as="geometry" />
        </mxCell>
        <mxCell id="bJx0PIyWjf9fioj1TdGY-41" value="" style="strokeWidth=1;shadow=0;dashed=0;align=center;html=1;shape=mxgraph.mockup.containers.browserWindow;rSize=0;strokeColor=#666666;strokeColor2=#008cff;strokeColor3=#c4c4c4;mainText=,;recursiveResize=0;" vertex="1" parent="1">
          <mxGeometry x="600" y="500" width="530" height="380" as="geometry" />
        </mxCell>
        <mxCell id="bJx0PIyWjf9fioj1TdGY-42" value="Page 1" style="strokeWidth=1;shadow=0;dashed=0;align=center;html=1;shape=mxgraph.mockup.containers.anchor;fontSize=17;fontColor=#666666;align=left;whiteSpace=wrap;" vertex="1" parent="bJx0PIyWjf9fioj1TdGY-41">
          <mxGeometry x="60" y="12" width="110" height="26" as="geometry" />
        </mxCell>
        <mxCell id="bJx0PIyWjf9fioj1TdGY-43" value="https://www.draw.io" style="strokeWidth=1;shadow=0;dashed=0;align=center;html=1;shape=mxgraph.mockup.containers.anchor;rSize=0;fontSize=17;fontColor=#666666;align=left;" vertex="1" parent="bJx0PIyWjf9fioj1TdGY-41">
          <mxGeometry x="130" y="60" width="250" height="26" as="geometry" />
        </mxCell>
        <mxCell id="bJx0PIyWjf9fioj1TdGY-44" value="Qual è la capitale dello stato" style="text;strokeColor=none;fillColor=none;html=1;fontSize=24;fontStyle=1;verticalAlign=middle;align=center;" vertex="1" parent="bJx0PIyWjf9fioj1TdGY-41">
          <mxGeometry x="220" y="150" width="100" height="40" as="geometry" />
        </mxCell>
        <mxCell id="bJx0PIyWjf9fioj1TdGY-45" value="Francia" style="text;strokeColor=#6c8ebf;fillColor=#dae8fc;html=1;fontSize=24;fontStyle=1;verticalAlign=middle;align=center;" vertex="1" parent="bJx0PIyWjf9fioj1TdGY-41">
          <mxGeometry x="225" y="210" width="100" height="40" as="geometry" />
        </mxCell>
        <mxCell id="bJx0PIyWjf9fioj1TdGY-46" value="Parigi" style="text;strokeColor=#82b366;fillColor=#d5e8d4;html=1;fontSize=24;fontStyle=1;verticalAlign=middle;align=center;" vertex="1" parent="bJx0PIyWjf9fioj1TdGY-41">
          <mxGeometry x="225" y="270" width="100" height="40" as="geometry" />
        </mxCell>
        <mxCell id="bJx0PIyWjf9fioj1TdGY-47" value="Nuova scheda" style="html=1;shadow=0;dashed=0;shape=mxgraph.bootstrap.rrect;rSize=5;strokeColor=none;strokeWidth=1;fillColor=#0085FC;fontColor=#FFFFFF;whiteSpace=wrap;align=left;verticalAlign=middle;spacingLeft=0;fontStyle=1;fontSize=14;spacing=5;" vertex="1" parent="bJx0PIyWjf9fioj1TdGY-41">
          <mxGeometry x="218" y="330" width="132" height="25" as="geometry" />
        </mxCell>
        <mxCell id="bJx0PIyWjf9fioj1TdGY-57" value="Roma" style="text;strokeColor=#82b366;fillColor=#d5e8d4;html=1;fontSize=24;fontStyle=1;verticalAlign=middle;align=center;" vertex="1" parent="bJx0PIyWjf9fioj1TdGY-41">
          <mxGeometry x="120" y="270" width="100" height="40" as="geometry" />
        </mxCell>
        <mxCell id="bJx0PIyWjf9fioj1TdGY-58" value="Berlino" style="text;strokeColor=#82b366;fillColor=#d5e8d4;html=1;fontSize=24;fontStyle=1;verticalAlign=middle;align=center;" vertex="1" parent="bJx0PIyWjf9fioj1TdGY-41">
          <mxGeometry x="330" y="270" width="100" height="40" as="geometry" />
        </mxCell>
        <mxCell id="bJx0PIyWjf9fioj1TdGY-59" value="pt 22" style="text;strokeColor=#C73500;fillColor=#fa6800;html=1;fontSize=24;fontStyle=1;verticalAlign=middle;align=center;fontColor=#000000;" vertex="1" parent="bJx0PIyWjf9fioj1TdGY-41">
          <mxGeometry x="430" y="110" width="100" height="40" as="geometry" />
        </mxCell>
        <mxCell id="bJx0PIyWjf9fioj1TdGY-69" value="test" style="text;strokeColor=#314354;fillColor=#647687;html=1;fontSize=24;fontStyle=1;verticalAlign=middle;align=center;fontColor=#ffffff;" vertex="1" parent="bJx0PIyWjf9fioj1TdGY-41">
          <mxGeometry y="110" width="100" height="40" as="geometry" />
        </mxCell>
        <mxCell id="bJx0PIyWjf9fioj1TdGY-48" value="" style="strokeWidth=1;shadow=0;dashed=0;align=center;html=1;shape=mxgraph.mockup.containers.browserWindow;rSize=0;strokeColor=#666666;strokeColor2=#008cff;strokeColor3=#c4c4c4;mainText=,;recursiveResize=0;" vertex="1" parent="1">
          <mxGeometry x="600" y="970" width="532.5" height="380" as="geometry" />
        </mxCell>
        <mxCell id="bJx0PIyWjf9fioj1TdGY-49" value="Page 1" style="strokeWidth=1;shadow=0;dashed=0;align=center;html=1;shape=mxgraph.mockup.containers.anchor;fontSize=17;fontColor=#666666;align=left;whiteSpace=wrap;" vertex="1" parent="bJx0PIyWjf9fioj1TdGY-48">
          <mxGeometry x="60" y="12" width="110" height="26" as="geometry" />
        </mxCell>
        <mxCell id="bJx0PIyWjf9fioj1TdGY-50" value="https://www.draw.io" style="strokeWidth=1;shadow=0;dashed=0;align=center;html=1;shape=mxgraph.mockup.containers.anchor;rSize=0;fontSize=17;fontColor=#666666;align=left;" vertex="1" parent="bJx0PIyWjf9fioj1TdGY-48">
          <mxGeometry x="130" y="60" width="250" height="26" as="geometry" />
        </mxCell>
        <mxCell id="bJx0PIyWjf9fioj1TdGY-51" value="Qual è la bandiera dello stato" style="text;strokeColor=none;fillColor=none;html=1;fontSize=24;fontStyle=1;verticalAlign=middle;align=center;" vertex="1" parent="bJx0PIyWjf9fioj1TdGY-48">
          <mxGeometry x="220" y="150" width="100" height="40" as="geometry" />
        </mxCell>
        <mxCell id="bJx0PIyWjf9fioj1TdGY-52" value="Francia" style="text;strokeColor=#6c8ebf;fillColor=#dae8fc;html=1;fontSize=24;fontStyle=1;verticalAlign=middle;align=center;" vertex="1" parent="bJx0PIyWjf9fioj1TdGY-48">
          <mxGeometry x="225" y="210" width="100" height="40" as="geometry" />
        </mxCell>
        <mxCell id="bJx0PIyWjf9fioj1TdGY-53" value="Nuova scheda" style="html=1;shadow=0;dashed=0;shape=mxgraph.bootstrap.rrect;rSize=5;strokeColor=none;strokeWidth=1;fillColor=#0085FC;fontColor=#FFFFFF;whiteSpace=wrap;align=left;verticalAlign=middle;spacingLeft=0;fontStyle=1;fontSize=14;spacing=5;" vertex="1" parent="bJx0PIyWjf9fioj1TdGY-48">
          <mxGeometry x="218" y="336" width="132" height="25" as="geometry" />
        </mxCell>
        <mxCell id="bJx0PIyWjf9fioj1TdGY-54" value="" style="rounded=0;whiteSpace=wrap;html=1;fillColor=#0050ef;fontColor=#ffffff;strokeColor=#001DBC;" vertex="1" parent="bJx0PIyWjf9fioj1TdGY-48">
          <mxGeometry x="214" y="260" width="40" height="60" as="geometry" />
        </mxCell>
        <mxCell id="bJx0PIyWjf9fioj1TdGY-55" value="" style="rounded=0;whiteSpace=wrap;html=1;" vertex="1" parent="bJx0PIyWjf9fioj1TdGY-48">
          <mxGeometry x="255" y="260" width="40" height="60" as="geometry" />
        </mxCell>
        <mxCell id="bJx0PIyWjf9fioj1TdGY-56" value="" style="rounded=0;whiteSpace=wrap;html=1;fillColor=#e51400;fontColor=#ffffff;strokeColor=#B20000;" vertex="1" parent="bJx0PIyWjf9fioj1TdGY-48">
          <mxGeometry x="296.5" y="260" width="40" height="60" as="geometry" />
        </mxCell>
        <mxCell id="bJx0PIyWjf9fioj1TdGY-60" value="" style="rounded=0;whiteSpace=wrap;html=1;fillColor=#6d8764;fontColor=#ffffff;strokeColor=#3A5431;" vertex="1" parent="bJx0PIyWjf9fioj1TdGY-48">
          <mxGeometry x="80" y="260" width="40" height="60" as="geometry" />
        </mxCell>
        <mxCell id="bJx0PIyWjf9fioj1TdGY-61" value="" style="rounded=0;whiteSpace=wrap;html=1;" vertex="1" parent="bJx0PIyWjf9fioj1TdGY-48">
          <mxGeometry x="121" y="260" width="40" height="60" as="geometry" />
        </mxCell>
        <mxCell id="bJx0PIyWjf9fioj1TdGY-62" value="" style="rounded=0;whiteSpace=wrap;html=1;fillColor=#e51400;fontColor=#ffffff;strokeColor=#B20000;" vertex="1" parent="bJx0PIyWjf9fioj1TdGY-48">
          <mxGeometry x="162.5" y="260" width="40" height="60" as="geometry" />
        </mxCell>
        <mxCell id="bJx0PIyWjf9fioj1TdGY-63" value="" style="rounded=0;whiteSpace=wrap;html=1;fillColor=#0050ef;fontColor=#ffffff;strokeColor=#001DBC;" vertex="1" parent="bJx0PIyWjf9fioj1TdGY-48">
          <mxGeometry x="350" y="260" width="40" height="60" as="geometry" />
        </mxCell>
        <mxCell id="bJx0PIyWjf9fioj1TdGY-64" value="" style="rounded=0;whiteSpace=wrap;html=1;" vertex="1" parent="bJx0PIyWjf9fioj1TdGY-48">
          <mxGeometry x="391" y="260" width="40" height="60" as="geometry" />
        </mxCell>
        <mxCell id="bJx0PIyWjf9fioj1TdGY-65" value="" style="rounded=0;whiteSpace=wrap;html=1;fillColor=#647687;fontColor=#ffffff;strokeColor=#314354;" vertex="1" parent="bJx0PIyWjf9fioj1TdGY-48">
          <mxGeometry x="432.5" y="260" width="40" height="60" as="geometry" />
        </mxCell>
        <mxCell id="bJx0PIyWjf9fioj1TdGY-67" value="pt 22" style="text;strokeColor=#C73500;fillColor=#fa6800;html=1;fontSize=24;fontStyle=1;verticalAlign=middle;align=center;fontColor=#000000;" vertex="1" parent="bJx0PIyWjf9fioj1TdGY-48">
          <mxGeometry x="432.5" y="110" width="100" height="40" as="geometry" />
        </mxCell>
        <mxCell id="bJx0PIyWjf9fioj1TdGY-68" value="test" style="text;strokeColor=#314354;fillColor=#647687;html=1;fontSize=24;fontStyle=1;verticalAlign=middle;align=center;fontColor=#ffffff;" vertex="1" parent="bJx0PIyWjf9fioj1TdGY-48">
          <mxGeometry y="110" width="100" height="40" as="geometry" />
        </mxCell>
        <mxCell id="bJx0PIyWjf9fioj1TdGY-72" value="Wireframe Quiz capitali" style="text;strokeColor=none;fillColor=none;html=1;fontSize=24;fontStyle=1;verticalAlign=middle;align=left;" vertex="1" parent="1">
          <mxGeometry x="10" y="13" width="340" height="40" as="geometry" />
        </mxCell>
        <mxCell id="bJx0PIyWjf9fioj1TdGY-73" value="" style="strokeWidth=1;shadow=0;dashed=0;align=center;html=1;shape=mxgraph.mockup.containers.browserWindow;rSize=0;strokeColor=#666666;strokeColor2=#008cff;strokeColor3=#c4c4c4;mainText=,;recursiveResize=0;" vertex="1" parent="1">
          <mxGeometry x="602.5" y="80" width="530" height="380" as="geometry" />
        </mxCell>
        <mxCell id="bJx0PIyWjf9fioj1TdGY-74" value="Page 1" style="strokeWidth=1;shadow=0;dashed=0;align=center;html=1;shape=mxgraph.mockup.containers.anchor;fontSize=17;fontColor=#666666;align=left;whiteSpace=wrap;" vertex="1" parent="bJx0PIyWjf9fioj1TdGY-73">
          <mxGeometry x="60" y="12" width="110" height="26" as="geometry" />
        </mxCell>
        <mxCell id="bJx0PIyWjf9fioj1TdGY-75" value="https://www.draw.io" style="strokeWidth=1;shadow=0;dashed=0;align=center;html=1;shape=mxgraph.mockup.containers.anchor;rSize=0;fontSize=17;fontColor=#666666;align=left;" vertex="1" parent="bJx0PIyWjf9fioj1TdGY-73">
          <mxGeometry x="130" y="60" width="250" height="26" as="geometry" />
        </mxCell>
        <mxCell id="bJx0PIyWjf9fioj1TdGY-85" value="Quiz capitali" style="text;strokeColor=none;fillColor=none;html=1;fontSize=24;fontStyle=1;verticalAlign=middle;align=center;" vertex="1" parent="bJx0PIyWjf9fioj1TdGY-73">
          <mxGeometry x="205" y="120" width="100" height="40" as="geometry" />
        </mxCell>
        <mxCell id="bJx0PIyWjf9fioj1TdGY-86" value="Assets" style="childLayout=tableLayout;recursiveResize=0;strokeColor=#98bf21;fillColor=#A7C942;shadow=1;" vertex="1" parent="bJx0PIyWjf9fioj1TdGY-73">
          <mxGeometry x="125" y="180" width="280" height="160" as="geometry" />
        </mxCell>
        <mxCell id="bJx0PIyWjf9fioj1TdGY-87" style="shape=tableRow;horizontal=0;startSize=0;swimlaneHead=0;swimlaneBody=0;top=0;left=0;bottom=0;right=0;dropTarget=0;collapsible=0;recursiveResize=0;expand=0;fontStyle=0;strokeColor=inherit;fillColor=#ffffff;" vertex="1" parent="bJx0PIyWjf9fioj1TdGY-86">
          <mxGeometry width="280" height="33" as="geometry" />
        </mxCell>
        <mxCell id="bJx0PIyWjf9fioj1TdGY-88" value="Domanda" style="connectable=0;recursiveResize=0;strokeColor=inherit;fillColor=#A7C942;align=center;fontStyle=1;fontColor=#FFFFFF;html=1;" vertex="1" parent="bJx0PIyWjf9fioj1TdGY-87">
          <mxGeometry width="93" height="33" as="geometry">
            <mxRectangle width="93" height="33" as="alternateBounds" />
          </mxGeometry>
        </mxCell>
        <mxCell id="bJx0PIyWjf9fioj1TdGY-89" value="Risposta" style="connectable=0;recursiveResize=0;strokeColor=inherit;fillColor=#A7C942;align=center;fontStyle=1;fontColor=#FFFFFF;html=1;" vertex="1" parent="bJx0PIyWjf9fioj1TdGY-87">
          <mxGeometry x="93" width="94" height="33" as="geometry">
            <mxRectangle width="94" height="33" as="alternateBounds" />
          </mxGeometry>
        </mxCell>
        <mxCell id="bJx0PIyWjf9fioj1TdGY-90" value="Punteggio" style="connectable=0;recursiveResize=0;strokeColor=inherit;fillColor=#A7C942;align=center;fontStyle=1;fontColor=#FFFFFF;html=1;" vertex="1" parent="bJx0PIyWjf9fioj1TdGY-87">
          <mxGeometry x="187" width="93" height="33" as="geometry">
            <mxRectangle width="93" height="33" as="alternateBounds" />
          </mxGeometry>
        </mxCell>
        <mxCell id="bJx0PIyWjf9fioj1TdGY-91" value="" style="shape=tableRow;horizontal=0;startSize=0;swimlaneHead=0;swimlaneBody=0;top=0;left=0;bottom=0;right=0;dropTarget=0;collapsible=0;recursiveResize=0;expand=0;fontStyle=0;strokeColor=inherit;fillColor=#ffffff;" vertex="1" parent="bJx0PIyWjf9fioj1TdGY-86">
          <mxGeometry y="33" width="280" height="32" as="geometry" />
        </mxCell>
        <mxCell id="bJx0PIyWjf9fioj1TdGY-92" value="Capitale Francia" style="connectable=0;recursiveResize=0;strokeColor=inherit;fillColor=inherit;align=center;whiteSpace=wrap;html=1;" vertex="1" parent="bJx0PIyWjf9fioj1TdGY-91">
          <mxGeometry width="93" height="32" as="geometry">
            <mxRectangle width="93" height="32" as="alternateBounds" />
          </mxGeometry>
        </mxCell>
        <mxCell id="bJx0PIyWjf9fioj1TdGY-93" value="Value 2" style="connectable=0;recursiveResize=0;strokeColor=inherit;fillColor=inherit;align=center;whiteSpace=wrap;html=1;" vertex="1" parent="bJx0PIyWjf9fioj1TdGY-91">
          <mxGeometry x="93" width="94" height="32" as="geometry">
            <mxRectangle width="94" height="32" as="alternateBounds" />
          </mxGeometry>
        </mxCell>
        <mxCell id="bJx0PIyWjf9fioj1TdGY-94" value="Value 3" style="connectable=0;recursiveResize=0;strokeColor=inherit;fillColor=inherit;align=center;whiteSpace=wrap;html=1;" vertex="1" parent="bJx0PIyWjf9fioj1TdGY-91">
          <mxGeometry x="187" width="93" height="32" as="geometry">
            <mxRectangle width="93" height="32" as="alternateBounds" />
          </mxGeometry>
        </mxCell>
        <mxCell id="bJx0PIyWjf9fioj1TdGY-95" value="" style="shape=tableRow;horizontal=0;startSize=0;swimlaneHead=0;swimlaneBody=0;top=0;left=0;bottom=0;right=0;dropTarget=0;collapsible=0;recursiveResize=0;expand=0;fontStyle=1;strokeColor=inherit;fillColor=#EAF2D3;" vertex="1" parent="bJx0PIyWjf9fioj1TdGY-86">
          <mxGeometry y="65" width="280" height="31" as="geometry" />
        </mxCell>
        <mxCell id="bJx0PIyWjf9fioj1TdGY-96" value="Capitale Gabon" style="connectable=0;recursiveResize=0;strokeColor=inherit;fillColor=inherit;whiteSpace=wrap;html=1;" vertex="1" parent="bJx0PIyWjf9fioj1TdGY-95">
          <mxGeometry width="93" height="31" as="geometry">
            <mxRectangle width="93" height="31" as="alternateBounds" />
          </mxGeometry>
        </mxCell>
        <mxCell id="bJx0PIyWjf9fioj1TdGY-97" value="Value 5" style="connectable=0;recursiveResize=0;strokeColor=inherit;fillColor=inherit;whiteSpace=wrap;html=1;" vertex="1" parent="bJx0PIyWjf9fioj1TdGY-95">
          <mxGeometry x="93" width="94" height="31" as="geometry">
            <mxRectangle width="94" height="31" as="alternateBounds" />
          </mxGeometry>
        </mxCell>
        <mxCell id="bJx0PIyWjf9fioj1TdGY-98" value="Value 6" style="connectable=0;recursiveResize=0;strokeColor=inherit;fillColor=inherit;whiteSpace=wrap;html=1;" vertex="1" parent="bJx0PIyWjf9fioj1TdGY-95">
          <mxGeometry x="187" width="93" height="31" as="geometry">
            <mxRectangle width="93" height="31" as="alternateBounds" />
          </mxGeometry>
        </mxCell>
        <mxCell id="bJx0PIyWjf9fioj1TdGY-99" value="" style="shape=tableRow;horizontal=0;startSize=0;swimlaneHead=0;swimlaneBody=0;top=0;left=0;bottom=0;right=0;dropTarget=0;collapsible=0;recursiveResize=0;expand=0;fontStyle=0;strokeColor=inherit;fillColor=#ffffff;" vertex="1" parent="bJx0PIyWjf9fioj1TdGY-86">
          <mxGeometry y="96" width="280" height="33" as="geometry" />
        </mxCell>
        <mxCell id="bJx0PIyWjf9fioj1TdGY-100" value="Capitale Cina" style="connectable=0;recursiveResize=0;strokeColor=inherit;fillColor=inherit;fontStyle=0;align=center;whiteSpace=wrap;html=1;" vertex="1" parent="bJx0PIyWjf9fioj1TdGY-99">
          <mxGeometry width="93" height="33" as="geometry">
            <mxRectangle width="93" height="33" as="alternateBounds" />
          </mxGeometry>
        </mxCell>
        <mxCell id="bJx0PIyWjf9fioj1TdGY-101" value="Value 8" style="connectable=0;recursiveResize=0;strokeColor=inherit;fillColor=inherit;fontStyle=0;align=center;whiteSpace=wrap;html=1;" vertex="1" parent="bJx0PIyWjf9fioj1TdGY-99">
          <mxGeometry x="93" width="94" height="33" as="geometry">
            <mxRectangle width="94" height="33" as="alternateBounds" />
          </mxGeometry>
        </mxCell>
        <mxCell id="bJx0PIyWjf9fioj1TdGY-102" value="Value 9" style="connectable=0;recursiveResize=0;strokeColor=inherit;fillColor=inherit;fontStyle=0;align=center;whiteSpace=wrap;html=1;" vertex="1" parent="bJx0PIyWjf9fioj1TdGY-99">
          <mxGeometry x="187" width="93" height="33" as="geometry">
            <mxRectangle width="93" height="33" as="alternateBounds" />
          </mxGeometry>
        </mxCell>
        <mxCell id="bJx0PIyWjf9fioj1TdGY-103" value="" style="shape=tableRow;horizontal=0;startSize=0;swimlaneHead=0;swimlaneBody=0;top=0;left=0;bottom=0;right=0;dropTarget=0;collapsible=0;recursiveResize=0;expand=0;fontStyle=1;strokeColor=inherit;fillColor=#EAF2D3;" vertex="1" parent="bJx0PIyWjf9fioj1TdGY-86">
          <mxGeometry y="129" width="280" height="31" as="geometry" />
        </mxCell>
        <mxCell id="bJx0PIyWjf9fioj1TdGY-104" value="Capitale USA" style="connectable=0;recursiveResize=0;strokeColor=inherit;fillColor=inherit;whiteSpace=wrap;html=1;" vertex="1" parent="bJx0PIyWjf9fioj1TdGY-103">
          <mxGeometry width="93" height="31" as="geometry">
            <mxRectangle width="93" height="31" as="alternateBounds" />
          </mxGeometry>
        </mxCell>
        <mxCell id="bJx0PIyWjf9fioj1TdGY-105" value="Value 11" style="connectable=0;recursiveResize=0;strokeColor=inherit;fillColor=inherit;whiteSpace=wrap;html=1;" vertex="1" parent="bJx0PIyWjf9fioj1TdGY-103">
          <mxGeometry x="93" width="94" height="31" as="geometry">
            <mxRectangle width="94" height="31" as="alternateBounds" />
          </mxGeometry>
        </mxCell>
        <mxCell id="bJx0PIyWjf9fioj1TdGY-106" value="Value 12" style="connectable=0;recursiveResize=0;strokeColor=inherit;fillColor=inherit;whiteSpace=wrap;html=1;" vertex="1" parent="bJx0PIyWjf9fioj1TdGY-103">
          <mxGeometry x="187" width="93" height="31" as="geometry">
            <mxRectangle width="93" height="31" as="alternateBounds" />
          </mxGeometry>
        </mxCell>
        <mxCell id="bJx0PIyWjf9fioj1TdGY-107" value="report" style="text;strokeColor=#314354;fillColor=#647687;html=1;fontSize=24;fontStyle=1;verticalAlign=middle;align=center;fontColor=#ffffff;" vertex="1" parent="bJx0PIyWjf9fioj1TdGY-73">
          <mxGeometry y="110" width="100" height="40" as="geometry" />
        </mxCell>
        <mxCell id="bJx0PIyWjf9fioj1TdGY-143" value="report" style="text;strokeColor=#314354;fillColor=#647687;html=1;fontSize=24;fontStyle=1;verticalAlign=middle;align=center;fontColor=#ffffff;" vertex="1" parent="bJx0PIyWjf9fioj1TdGY-73">
          <mxGeometry y="110" width="100" height="40" as="geometry" />
        </mxCell>
        <mxCell id="bJx0PIyWjf9fioj1TdGY-108" value="" style="strokeWidth=1;shadow=0;dashed=0;align=center;html=1;shape=mxgraph.mockup.containers.browserWindow;rSize=0;strokeColor=#666666;strokeColor2=#008cff;strokeColor3=#c4c4c4;mainText=,;recursiveResize=0;" vertex="1" parent="1">
          <mxGeometry x="597.5" y="1360" width="532.5" height="420" as="geometry" />
        </mxCell>
        <mxCell id="bJx0PIyWjf9fioj1TdGY-109" value="Page 1" style="strokeWidth=1;shadow=0;dashed=0;align=center;html=1;shape=mxgraph.mockup.containers.anchor;fontSize=17;fontColor=#666666;align=left;whiteSpace=wrap;" vertex="1" parent="bJx0PIyWjf9fioj1TdGY-108">
          <mxGeometry x="60" y="12" width="110" height="26" as="geometry" />
        </mxCell>
        <mxCell id="bJx0PIyWjf9fioj1TdGY-110" value="https://www.draw.io" style="strokeWidth=1;shadow=0;dashed=0;align=center;html=1;shape=mxgraph.mockup.containers.anchor;rSize=0;fontSize=17;fontColor=#666666;align=left;" vertex="1" parent="bJx0PIyWjf9fioj1TdGY-108">
          <mxGeometry x="130" y="60" width="250" height="26" as="geometry" />
        </mxCell>
        <mxCell id="bJx0PIyWjf9fioj1TdGY-111" value="memory" style="text;strokeColor=none;fillColor=none;html=1;fontSize=24;fontStyle=1;verticalAlign=middle;align=center;" vertex="1" parent="bJx0PIyWjf9fioj1TdGY-108">
          <mxGeometry x="220" y="150" width="100" height="40" as="geometry" />
        </mxCell>
        <mxCell id="bJx0PIyWjf9fioj1TdGY-114" value="" style="rounded=0;whiteSpace=wrap;html=1;fillColor=#6d8764;fontColor=#ffffff;strokeColor=#3A5431;" vertex="1" parent="bJx0PIyWjf9fioj1TdGY-108">
          <mxGeometry x="214" y="260" width="40" height="60" as="geometry" />
        </mxCell>
        <mxCell id="bJx0PIyWjf9fioj1TdGY-115" value="" style="rounded=0;whiteSpace=wrap;html=1;" vertex="1" parent="bJx0PIyWjf9fioj1TdGY-108">
          <mxGeometry x="255" y="260" width="40" height="60" as="geometry" />
        </mxCell>
        <mxCell id="bJx0PIyWjf9fioj1TdGY-116" value="" style="rounded=0;whiteSpace=wrap;html=1;fillColor=#647687;fontColor=#ffffff;strokeColor=#314354;" vertex="1" parent="bJx0PIyWjf9fioj1TdGY-108">
          <mxGeometry x="296.5" y="260" width="40" height="60" as="geometry" />
        </mxCell>
        <mxCell id="bJx0PIyWjf9fioj1TdGY-117" value="" style="rounded=0;whiteSpace=wrap;html=1;fillColor=#6d8764;fontColor=#ffffff;strokeColor=#3A5431;" vertex="1" parent="bJx0PIyWjf9fioj1TdGY-108">
          <mxGeometry x="80" y="260" width="40" height="60" as="geometry" />
        </mxCell>
        <mxCell id="bJx0PIyWjf9fioj1TdGY-118" value="" style="rounded=0;whiteSpace=wrap;html=1;" vertex="1" parent="bJx0PIyWjf9fioj1TdGY-108">
          <mxGeometry x="121" y="260" width="40" height="60" as="geometry" />
        </mxCell>
        <mxCell id="bJx0PIyWjf9fioj1TdGY-119" value="" style="rounded=0;whiteSpace=wrap;html=1;fillColor=#e51400;fontColor=#ffffff;strokeColor=#B20000;" vertex="1" parent="bJx0PIyWjf9fioj1TdGY-108">
          <mxGeometry x="162.5" y="260" width="40" height="60" as="geometry" />
        </mxCell>
        <mxCell id="bJx0PIyWjf9fioj1TdGY-120" value="" style="rounded=0;whiteSpace=wrap;html=1;fillColor=#0050ef;fontColor=#ffffff;strokeColor=#001DBC;" vertex="1" parent="bJx0PIyWjf9fioj1TdGY-108">
          <mxGeometry x="350" y="260" width="40" height="60" as="geometry" />
        </mxCell>
        <mxCell id="bJx0PIyWjf9fioj1TdGY-121" value="" style="rounded=0;whiteSpace=wrap;html=1;" vertex="1" parent="bJx0PIyWjf9fioj1TdGY-108">
          <mxGeometry x="391" y="260" width="40" height="60" as="geometry" />
        </mxCell>
        <mxCell id="bJx0PIyWjf9fioj1TdGY-122" value="" style="rounded=0;whiteSpace=wrap;html=1;fillColor=#647687;fontColor=#ffffff;strokeColor=#314354;" vertex="1" parent="bJx0PIyWjf9fioj1TdGY-108">
          <mxGeometry x="432.5" y="260" width="40" height="60" as="geometry" />
        </mxCell>
        <mxCell id="bJx0PIyWjf9fioj1TdGY-123" value="pt 22" style="text;strokeColor=#C73500;fillColor=#fa6800;html=1;fontSize=24;fontStyle=1;verticalAlign=middle;align=center;fontColor=#000000;" vertex="1" parent="bJx0PIyWjf9fioj1TdGY-108">
          <mxGeometry x="432.5" y="110" width="100" height="40" as="geometry" />
        </mxCell>
        <mxCell id="bJx0PIyWjf9fioj1TdGY-124" value="game" style="text;strokeColor=#314354;fillColor=#647687;html=1;fontSize=24;fontStyle=1;verticalAlign=middle;align=center;fontColor=#ffffff;" vertex="1" parent="bJx0PIyWjf9fioj1TdGY-108">
          <mxGeometry y="110" width="100" height="40" as="geometry" />
        </mxCell>
        <mxCell id="bJx0PIyWjf9fioj1TdGY-125" value="" style="rounded=0;whiteSpace=wrap;html=1;fillColor=#0050ef;fontColor=#ffffff;strokeColor=#001DBC;" vertex="1" parent="bJx0PIyWjf9fioj1TdGY-108">
          <mxGeometry x="214" y="190" width="40" height="60" as="geometry" />
        </mxCell>
        <mxCell id="bJx0PIyWjf9fioj1TdGY-126" value="" style="rounded=0;whiteSpace=wrap;html=1;" vertex="1" parent="bJx0PIyWjf9fioj1TdGY-108">
          <mxGeometry x="255" y="190" width="40" height="60" as="geometry" />
        </mxCell>
        <mxCell id="bJx0PIyWjf9fioj1TdGY-127" value="" style="rounded=0;whiteSpace=wrap;html=1;fillColor=#e51400;fontColor=#ffffff;strokeColor=#B20000;" vertex="1" parent="bJx0PIyWjf9fioj1TdGY-108">
          <mxGeometry x="296.5" y="190" width="40" height="60" as="geometry" />
        </mxCell>
        <mxCell id="bJx0PIyWjf9fioj1TdGY-128" value="" style="rounded=0;whiteSpace=wrap;html=1;fillColor=#6d8764;fontColor=#ffffff;strokeColor=#3A5431;" vertex="1" parent="bJx0PIyWjf9fioj1TdGY-108">
          <mxGeometry x="80" y="190" width="40" height="60" as="geometry" />
        </mxCell>
        <mxCell id="bJx0PIyWjf9fioj1TdGY-129" value="" style="rounded=0;whiteSpace=wrap;html=1;" vertex="1" parent="bJx0PIyWjf9fioj1TdGY-108">
          <mxGeometry x="121" y="190" width="40" height="60" as="geometry" />
        </mxCell>
        <mxCell id="bJx0PIyWjf9fioj1TdGY-130" value="" style="rounded=0;whiteSpace=wrap;html=1;fillColor=#e51400;fontColor=#ffffff;strokeColor=#B20000;" vertex="1" parent="bJx0PIyWjf9fioj1TdGY-108">
          <mxGeometry x="162.5" y="190" width="40" height="60" as="geometry" />
        </mxCell>
        <mxCell id="bJx0PIyWjf9fioj1TdGY-131" value="" style="rounded=0;whiteSpace=wrap;html=1;fillColor=#0050ef;fontColor=#ffffff;strokeColor=#001DBC;" vertex="1" parent="bJx0PIyWjf9fioj1TdGY-108">
          <mxGeometry x="350" y="190" width="40" height="60" as="geometry" />
        </mxCell>
        <mxCell id="bJx0PIyWjf9fioj1TdGY-132" value="" style="rounded=0;whiteSpace=wrap;html=1;" vertex="1" parent="bJx0PIyWjf9fioj1TdGY-108">
          <mxGeometry x="391" y="190" width="40" height="60" as="geometry" />
        </mxCell>
        <mxCell id="bJx0PIyWjf9fioj1TdGY-133" value="" style="rounded=0;whiteSpace=wrap;html=1;fillColor=#647687;fontColor=#ffffff;strokeColor=#314354;" vertex="1" parent="bJx0PIyWjf9fioj1TdGY-108">
          <mxGeometry x="432.5" y="190" width="40" height="60" as="geometry" />
        </mxCell>
        <mxCell id="bJx0PIyWjf9fioj1TdGY-134" value="" style="rounded=0;whiteSpace=wrap;html=1;fillColor=#e3c800;fontColor=#000000;strokeColor=#B09500;" vertex="1" parent="bJx0PIyWjf9fioj1TdGY-108">
          <mxGeometry x="214" y="330" width="40" height="60" as="geometry" />
        </mxCell>
        <mxCell id="bJx0PIyWjf9fioj1TdGY-135" value="" style="rounded=0;whiteSpace=wrap;html=1;" vertex="1" parent="bJx0PIyWjf9fioj1TdGY-108">
          <mxGeometry x="255" y="330" width="40" height="60" as="geometry" />
        </mxCell>
        <mxCell id="bJx0PIyWjf9fioj1TdGY-136" value="" style="rounded=0;whiteSpace=wrap;html=1;fillColor=#e51400;fontColor=#ffffff;strokeColor=#B20000;" vertex="1" parent="bJx0PIyWjf9fioj1TdGY-108">
          <mxGeometry x="296.5" y="330" width="40" height="60" as="geometry" />
        </mxCell>
        <mxCell id="bJx0PIyWjf9fioj1TdGY-137" value="" style="rounded=0;whiteSpace=wrap;html=1;fillColor=#e3c800;fontColor=#000000;strokeColor=#B09500;" vertex="1" parent="bJx0PIyWjf9fioj1TdGY-108">
          <mxGeometry x="80" y="330" width="40" height="60" as="geometry" />
        </mxCell>
        <mxCell id="bJx0PIyWjf9fioj1TdGY-138" value="" style="rounded=0;whiteSpace=wrap;html=1;" vertex="1" parent="bJx0PIyWjf9fioj1TdGY-108">
          <mxGeometry x="121" y="330" width="40" height="60" as="geometry" />
        </mxCell>
        <mxCell id="bJx0PIyWjf9fioj1TdGY-139" value="" style="rounded=0;whiteSpace=wrap;html=1;fillColor=#e51400;fontColor=#ffffff;strokeColor=#B20000;" vertex="1" parent="bJx0PIyWjf9fioj1TdGY-108">
          <mxGeometry x="162.5" y="330" width="40" height="60" as="geometry" />
        </mxCell>
        <mxCell id="bJx0PIyWjf9fioj1TdGY-140" value="" style="rounded=0;whiteSpace=wrap;html=1;fillColor=#6d8764;fontColor=#ffffff;strokeColor=#3A5431;" vertex="1" parent="bJx0PIyWjf9fioj1TdGY-108">
          <mxGeometry x="350" y="330" width="40" height="60" as="geometry" />
        </mxCell>
        <mxCell id="bJx0PIyWjf9fioj1TdGY-141" value="" style="rounded=0;whiteSpace=wrap;html=1;" vertex="1" parent="bJx0PIyWjf9fioj1TdGY-108">
          <mxGeometry x="391" y="330" width="40" height="60" as="geometry" />
        </mxCell>
        <mxCell id="bJx0PIyWjf9fioj1TdGY-142" value="" style="rounded=0;whiteSpace=wrap;html=1;fillColor=#647687;fontColor=#ffffff;strokeColor=#314354;" vertex="1" parent="bJx0PIyWjf9fioj1TdGY-108">
          <mxGeometry x="432.5" y="330" width="40" height="60" as="geometry" />
        </mxCell>
      </root>
    </mxGraphModel>
  </diagram>
</mxfile>
